<?xml version="1.0" encoding="utf-8"?>
<!-- Generator: Adobe Illustrator 17.1.0, SVG Export Plug-In . SVG Version: 6.00 Build 0)  -->
<!DOCTYPE svg PUBLIC "-//W3C//DTD SVG 1.1//EN" "http://www.w3.org/Graphics/SVG/1.1/DTD/svg11.dtd">
<svg version="1.1" id="Layer_1" xmlns:sketch="http://www.bohemiancoding.com/sketch/ns"
	 xmlns="http://www.w3.org/2000/svg" xmlns:xlink="http://www.w3.org/1999/xlink" x="0px" y="0px" viewBox="-0.1 0.5 173.5 163.6"
	 enable-background="new -0.1 0.5 173.5 163.6" xml:space="preserve">
<title>Startscreen</title>
<desc>Created with Sketch.</desc>
<g id="GUI-v1.1" sketch:type="MSPage">
	<g id="Start-Copy-5" transform="translate(-69.500000, -126.000000)" sketch:type="MSArtboardGroup">
		<g id="Startscreen" transform="translate(69.000000, 127.000000)" sketch:type="MSLayerGroup">
			<g id="Imported-Layers" transform="translate(55.000000, 0.000000)" sketch:type="MSShapeGroup">
				<path id="Fill-1" fill="none" d="M50.6,27C50.6,40.1,40,50.8,27,50.8S3.4,40.1,3.4,27C3.4,13.9,14,3.3,27,3.3S50.6,13.9,50.6,27
					L50.6,27z"/>
				<path id="Stroke-2" fill="none" stroke="#FFFFFF" stroke-width="1.1972" d="M50.6,27C50.6,40.1,40,50.8,27,50.8S3.4,40.1,3.4,27
					C3.4,13.9,14,3.3,27,3.3S50.6,13.9,50.6,27L50.6,27z"/>
				<path id="Fill-3" fill="#6DD2D9" d="M30.2,3.3c0,1.8-1.4,3.2-3.2,3.2c-1.8,0-3.2-1.4-3.2-3.2s1.4-3.2,3.2-3.2
					C28.7,0.1,30.2,1.5,30.2,3.3L30.2,3.3z"/>
				<path id="Stroke-4" fill="none" stroke="#FFFFFF" stroke-width="1.1972" d="M30.2,3.3c0,1.8-1.4,3.2-3.2,3.2
					c-1.8,0-3.2-1.4-3.2-3.2s1.4-3.2,3.2-3.2C28.7,0.1,30.2,1.5,30.2,3.3L30.2,3.3z"/>
				<path id="Fill-5" fill="#F5BD53" d="M18,4.9c0.9,1.5,0.4,3.5-1.2,4.4c-1.5,0.9-3.5,0.4-4.3-1.2c-0.9-1.5-0.4-3.5,1.2-4.4
					C15.1,2.8,17.1,3.4,18,4.9L18,4.9z"/>
				<path id="Stroke-6" fill="none" stroke="#FFFFFF" stroke-width="1.1972" d="M18,4.9c0.9,1.5,0.4,3.5-1.2,4.4
					c-1.5,0.9-3.5,0.4-4.3-1.2c-0.9-1.5-0.4-3.5,1.2-4.4C15.1,2.8,17.1,3.4,18,4.9L18,4.9z"/>
				<path id="Fill-7" fill="#E67029" d="M8.2,12.4c1.5,0.9,2,2.8,1.2,4.4c-0.9,1.5-2.8,2.1-4.3,1.2s-2-2.8-1.2-4.4
					C4.7,12,6.7,11.5,8.2,12.4L8.2,12.4z"/>
				<path id="Stroke-8" fill="none" stroke="#FFFFFF" stroke-width="1.1972" d="M8.2,12.4c1.5,0.9,2,2.8,1.2,4.4
					c-0.9,1.5-2.8,2.1-4.3,1.2s-2-2.8-1.2-4.4C4.7,12,6.7,11.5,8.2,12.4L8.2,12.4z"/>
				<path id="Fill-9" fill="#6DD2D9" d="M3.4,23.8c1.8,0,3.2,1.4,3.2,3.2c0,1.8-1.4,3.2-3.2,3.2S0.3,28.8,0.3,27
					C0.3,25.3,1.7,23.8,3.4,23.8L3.4,23.8z"/>
				<path id="Stroke-10" fill="none" stroke="#FFFFFF" stroke-width="1.1972" d="M3.4,23.8c1.8,0,3.2,1.4,3.2,3.2
					c0,1.8-1.4,3.2-3.2,3.2S0.3,28.8,0.3,27C0.3,25.3,1.7,23.8,3.4,23.8L3.4,23.8z"/>
				<path id="Fill-11" fill="#F5BD53" d="M5,36.1c1.5-0.9,3.5-0.4,4.3,1.2c0.9,1.5,0.4,3.5-1.2,4.4c-1.5,0.9-3.5,0.4-4.3-1.2
					C3,38.9,3.5,37,5,36.1L5,36.1z"/>
				<path id="Stroke-12" fill="none" stroke="#FFFFFF" stroke-width="1.1972" d="M5,36.1c1.5-0.9,3.5-0.4,4.3,1.2
					c0.9,1.5,0.4,3.5-1.2,4.4c-1.5,0.9-3.5,0.4-4.3-1.2C3,38.9,3.5,37,5,36.1L5,36.1z"/>
				<path id="Fill-13" fill="#6DD2D9" d="M12.5,46c0.9-1.5,2.8-2.1,4.3-1.2c1.5,0.9,2,2.8,1.2,4.4c-0.9,1.5-2.8,2.1-4.3,1.2
					C12.1,49.4,11.6,47.5,12.5,46L12.5,46z"/>
				<path id="Stroke-14" fill="none" stroke="#FFFFFF" stroke-width="1.1972" d="M12.5,46c0.9-1.5,2.8-2.1,4.3-1.2
					c1.5,0.9,2,2.8,1.2,4.4c-0.9,1.5-2.8,2.1-4.3,1.2C12.1,49.4,11.6,47.5,12.5,46L12.5,46z"/>
				<path id="Fill-15" fill="#F5BD53" d="M23.8,50.7c0-1.8,1.4-3.2,3.2-3.2c1.8,0,3.2,1.4,3.2,3.2c0,1.8-1.4,3.2-3.2,3.2
					C25.2,53.9,23.8,52.5,23.8,50.7L23.8,50.7z"/>
				<path id="Stroke-16" fill="none" stroke="#FFFFFF" stroke-width="1.1972" d="M23.8,50.7c0-1.8,1.4-3.2,3.2-3.2
					c1.8,0,3.2,1.4,3.2,3.2c0,1.8-1.4,3.2-3.2,3.2C25.2,53.9,23.8,52.5,23.8,50.7L23.8,50.7z"/>
				<path id="Fill-17" fill="#E67029" d="M36,49.2c-0.9-1.5-0.4-3.5,1.2-4.4c1.5-0.9,3.5-0.4,4.3,1.2c0.9,1.5,0.4,3.5-1.2,4.4
					C38.8,51.2,36.9,50.7,36,49.2L36,49.2z"/>
				<path id="Stroke-18" fill="none" stroke="#FFFFFF" stroke-width="1.1972" d="M36,49.2c-0.9-1.5-0.4-3.5,1.2-4.4
					c1.5-0.9,3.5-0.4,4.3,1.2c0.9,1.5,0.4,3.5-1.2,4.4C38.8,51.2,36.9,50.7,36,49.2L36,49.2z"/>
				<path id="Fill-19" fill="#E67029" d="M45.8,41.6c-1.5-0.9-2-2.8-1.2-4.4c0.9-1.5,2.8-2.1,4.3-1.2c1.5,0.9,2,2.8,1.2,4.4
					C49.2,42,47.3,42.5,45.8,41.6L45.8,41.6z"/>
				<path id="Stroke-20" fill="none" stroke="#FFFFFF" stroke-width="1.1972" d="M45.8,41.6c-1.5-0.9-2-2.8-1.2-4.4
					c0.9-1.5,2.8-2.1,4.3-1.2c1.5,0.9,2,2.8,1.2,4.4C49.2,42,47.3,42.5,45.8,41.6L45.8,41.6z"/>
				<path id="Fill-21" fill="#6DD2D9" d="M50.5,30.2c-1.8,0-3.2-1.4-3.2-3.2c0-1.8,1.4-3.2,3.2-3.2s3.2,1.4,3.2,3.2
					C53.7,28.8,52.3,30.2,50.5,30.2L50.5,30.2z"/>
				<path id="Stroke-22" fill="none" stroke="#FFFFFF" stroke-width="1.1972" d="M50.5,30.2c-1.8,0-3.2-1.4-3.2-3.2
					c0-1.8,1.4-3.2,3.2-3.2s3.2,1.4,3.2,3.2C53.7,28.8,52.3,30.2,50.5,30.2L50.5,30.2z"/>
				<path id="Fill-23" fill="#F5BD53" d="M49,17.9c-1.5,0.9-3.5,0.4-4.3-1.2c-0.9-1.5-0.4-3.5,1.2-4.4c1.5-0.9,3.5-0.4,4.3,1.2
					S50.5,17.1,49,17.9L49,17.9z"/>
				<path id="Stroke-24" fill="none" stroke="#FFFFFF" stroke-width="1.1972" d="M49,17.9c-1.5,0.9-3.5,0.4-4.3-1.2
					c-0.9-1.5-0.4-3.5,1.2-4.4c1.5-0.9,3.5-0.4,4.3,1.2S50.5,17.1,49,17.9L49,17.9z"/>
				<path id="Fill-25" fill="#6DD2D9" d="M41.5,8.1c-0.9,1.5-2.8,2.1-4.3,1.2c-1.5-0.9-2-2.8-1.2-4.4c0.9-1.5,2.8-2.1,4.3-1.2
					C41.9,4.6,42.4,6.6,41.5,8.1L41.5,8.1z"/>
				<path id="Stroke-26" fill="none" stroke="#FFFFFF" stroke-width="1.1972" d="M41.5,8.1c-0.9,1.5-2.8,2.1-4.3,1.2
					c-1.5-0.9-2-2.8-1.2-4.4c0.9-1.5,2.8-2.1,4.3-1.2C41.9,4.6,42.4,6.6,41.5,8.1L41.5,8.1z"/>
			</g>
			<g enable-background="new    ">
				<path fill="#FFFFFF" d="M40.3,107V85.2h6.8c2.5,0,4.4,0.6,5.6,1.7c1.2,1.1,1.8,2.8,1.8,4.9c0,2.1-0.6,3.7-1.9,4.8
					s-3.1,1.6-5.6,1.6h-4.1v8.8H40.3z M42.9,95.9h4.3c1.3,0,2.4-0.3,3.2-1c0.8-0.7,1.2-1.7,1.2-3.2c0-1.5-0.4-2.6-1.2-3.3
					c-0.8-0.7-1.9-1-3.3-1h-4.3V95.9z"/>
				<path fill="#FFFFFF" d="M57.7,107V85.2h2.5v7.5c0.6-0.5,1.4-0.8,2.2-1.2c0.8-0.3,1.7-0.5,2.7-0.5c2.1,0,3.6,0.5,4.5,1.6
					c0.9,1.1,1.3,2.6,1.3,4.7v9.7h-2.6v-9.8c0-1.4-0.3-2.5-0.9-3.2c-0.6-0.7-1.5-1-2.8-1c-0.8,0-1.6,0.2-2.4,0.6
					c-0.8,0.4-1.4,0.8-2,1.2V107H57.7z"/>
				<path fill="#FFFFFF" d="M73.9,111.1c0.2,0.1,0.5,0.2,0.9,0.2c0.4,0.1,0.7,0.1,1.1,0.1c0.5,0,0.9-0.1,1.2-0.4
					c0.3-0.2,0.6-0.7,0.9-1.4l1.3-3.1l-6.2-15.2H76l4.6,12l4.6-12h2.7l-8,19.7c-0.4,1-0.9,1.6-1.7,2c-0.7,0.3-1.4,0.5-2.2,0.5
					c-0.5,0-1-0.1-1.6-0.2c-0.6-0.1-1-0.3-1.3-0.4L73.9,111.1z"/>
				<path fill="#FFFFFF" d="M90.8,103.1c0.4,0.7,0.8,1.2,1.4,1.6c0.6,0.4,1.4,0.6,2.3,0.6c2.1,0,3.2-0.8,3.2-2.3
					c0-0.5-0.1-0.8-0.2-1.2c-0.1-0.3-0.4-0.6-0.7-0.9c-0.3-0.3-0.7-0.5-1.2-0.7c-0.5-0.2-1.1-0.5-1.8-0.7c-0.8-0.3-1.5-0.5-2-0.8
					c-0.5-0.3-1-0.6-1.3-1c-0.3-0.3-0.6-0.7-0.8-1.2c-0.2-0.4-0.2-0.9-0.2-1.5c0-1.3,0.5-2.3,1.4-3S93,91,94.6,91
					c1.3,0,2.3,0.2,3.2,0.6c0.9,0.4,1.6,1,2.2,1.8l-1.8,1.4c-0.4-0.5-0.9-1-1.5-1.3c-0.6-0.3-1.3-0.5-2-0.5c-0.9,0-1.6,0.2-2,0.5
					s-0.7,0.8-0.7,1.3c0,0.3,0.1,0.6,0.2,0.9c0.1,0.3,0.3,0.5,0.6,0.7c0.3,0.2,0.7,0.4,1.2,0.6c0.5,0.2,1.1,0.4,1.9,0.7
					c1.4,0.5,2.5,1.1,3.3,1.9c0.7,0.8,1.1,1.8,1.1,3c0,0.7-0.1,1.4-0.4,2c-0.3,0.6-0.7,1.1-1.2,1.5c-0.5,0.4-1.1,0.7-1.8,0.9
					c-0.7,0.2-1.4,0.3-2.2,0.3c-1.5,0-2.8-0.3-3.6-0.9c-0.9-0.6-1.6-1.3-2.1-2.2L90.8,103.1z"/>
				<path fill="#FFFFFF" d="M104.4,107.4c-0.5,0-0.9-0.2-1.3-0.6c-0.3-0.4-0.5-0.8-0.5-1.4c0-0.5,0.2-1,0.5-1.4s0.8-0.6,1.3-0.6
					c0.5,0,0.9,0.2,1.3,0.6c0.3,0.4,0.5,0.8,0.5,1.4c0,0.5-0.2,1-0.5,1.4C105.4,107.2,104.9,107.4,104.4,107.4z"/>
				<path fill="#FFFFFF" d="M111.2,88.9c-0.5,0-0.9-0.2-1.2-0.5c-0.3-0.4-0.5-0.8-0.5-1.3c0-0.5,0.2-0.9,0.5-1.3s0.7-0.6,1.2-0.6
					c0.5,0,0.9,0.2,1.2,0.6s0.5,0.8,0.5,1.3c0,0.5-0.2,1-0.5,1.3C112.1,88.7,111.7,88.9,111.2,88.9z M109.9,107V91.4h2.6V107H109.9z
					"/>
				<path fill="#FFFFFF" d="M120.3,106.7c-0.9-0.5-1.6-1.1-2.3-1.9c-0.6-0.8-1.1-1.7-1.4-2.7c-0.3-1-0.5-2-0.5-3c0-1,0.1-2,0.4-3
					c0.3-1,0.7-1.8,1.4-2.6c0.6-0.8,1.4-1.4,2.3-1.8c0.9-0.5,2-0.7,3.2-0.7c1.2,0,2.3,0.2,3.2,0.7s1.7,1.1,2.3,1.8
					c0.6,0.8,1.1,1.6,1.4,2.6c0.3,1,0.5,2,0.5,3c0,1-0.2,2-0.5,3c-0.3,1-0.8,1.9-1.4,2.6c-0.6,0.8-1.4,1.4-2.3,1.8s-2,0.7-3.2,0.7
					S121.3,107.1,120.3,106.7z M119.9,103.4c0.4,0.6,0.9,1,1.5,1.4c0.6,0.4,1.3,0.5,2.1,0.5c0.8,0,1.5-0.2,2.1-0.5
					c0.6-0.4,1.1-0.8,1.5-1.4s0.7-1.2,0.9-2c0.2-0.7,0.3-1.5,0.3-2.3s-0.1-1.5-0.3-2.3c-0.2-0.7-0.5-1.4-0.9-2s-0.9-1-1.5-1.4
					c-0.6-0.3-1.3-0.5-2.1-0.5c-0.8,0-1.5,0.2-2.1,0.5c-0.6,0.3-1.1,0.8-1.5,1.4s-0.7,1.2-0.9,2c-0.2,0.7-0.3,1.5-0.3,2.2
					c0,0.8,0.1,1.5,0.3,2.3C119.2,102.1,119.5,102.8,119.9,103.4z"/>
			</g>
			<g enable-background="new    ">
				<path fill="#FFFFFF" d="M33.8,144v-9.3h1.1v4.1l4-4.1h1.3l-3.6,3.7l3.8,5.7h-1.3l-3.2-4.9l-1,1v3.9H33.8z"/>
				<path fill="#FFFFFF" d="M41.9,140.6c0,0.8,0.2,1.5,0.6,2c0.4,0.5,0.9,0.7,1.7,0.7c0.4,0,0.8-0.1,1.1-0.3
					c0.3-0.2,0.5-0.5,0.7-0.8l0.7,0.5c-0.2,0.4-0.6,0.8-0.9,1s-0.9,0.4-1.6,0.4c-0.5,0-1-0.1-1.4-0.2s-0.7-0.4-1-0.7
					c-0.3-0.3-0.5-0.7-0.7-1.1s-0.2-0.9-0.2-1.5c0-0.5,0.1-1,0.2-1.4s0.3-0.8,0.6-1.1c0.3-0.3,0.6-0.5,0.9-0.7
					c0.4-0.2,0.8-0.2,1.2-0.2c0.5,0,0.9,0.1,1.3,0.3s0.7,0.4,0.9,0.7c0.2,0.3,0.4,0.7,0.5,1.1c0.1,0.4,0.2,0.9,0.2,1.4H41.9z
					 M45.5,139.7c0-0.3-0.1-0.5-0.2-0.8c-0.1-0.2-0.2-0.4-0.4-0.5c-0.2-0.1-0.3-0.3-0.5-0.3c-0.2-0.1-0.4-0.1-0.6-0.1
					c-0.4,0-0.8,0.1-1.2,0.4c-0.3,0.3-0.5,0.7-0.7,1.3H45.5z"/>
				<path fill="#FFFFFF" d="M49,140.6c0,0.8,0.2,1.5,0.6,2c0.4,0.5,0.9,0.7,1.7,0.7c0.4,0,0.8-0.1,1.1-0.3c0.3-0.2,0.5-0.5,0.7-0.8
					l0.7,0.5c-0.2,0.4-0.6,0.8-0.9,1s-0.9,0.4-1.6,0.4c-0.5,0-1-0.1-1.4-0.2s-0.7-0.4-1-0.7c-0.3-0.3-0.5-0.7-0.7-1.1
					s-0.2-0.9-0.2-1.5c0-0.5,0.1-1,0.2-1.4s0.3-0.8,0.6-1.1c0.3-0.3,0.6-0.5,0.9-0.7c0.4-0.2,0.8-0.2,1.2-0.2c0.5,0,0.9,0.1,1.3,0.3
					s0.7,0.4,0.9,0.7c0.2,0.3,0.4,0.7,0.5,1.1c0.1,0.4,0.2,0.9,0.2,1.4H49z M52.6,139.7c0-0.3-0.1-0.5-0.2-0.8
					c-0.1-0.2-0.2-0.4-0.4-0.5c-0.2-0.1-0.3-0.3-0.5-0.3c-0.2-0.1-0.4-0.1-0.6-0.1c-0.4,0-0.8,0.1-1.2,0.4c-0.3,0.3-0.5,0.7-0.7,1.3
					H52.6z"/>
				<path fill="#FFFFFF" d="M55.4,146.6v-9.3h1l0.1,0.5c0.3-0.2,0.6-0.4,0.9-0.5c0.3-0.1,0.7-0.2,1-0.2c0.5,0,0.9,0.1,1.3,0.3
					c0.3,0.2,0.6,0.4,0.8,0.8s0.4,0.7,0.5,1.1s0.1,0.8,0.1,1.3c0,0.5-0.1,1-0.3,1.5c-0.2,0.4-0.4,0.8-0.7,1.1
					c-0.3,0.3-0.6,0.6-1.1,0.7s-0.9,0.3-1.3,0.3c-0.5,0-1-0.1-1.3-0.2v2.7H55.4z M56.5,143c0.1,0.1,0.3,0.1,0.4,0.2
					c0.2,0.1,0.4,0.1,0.7,0.1c0.4,0,0.7-0.1,1-0.2c0.3-0.1,0.6-0.3,0.8-0.5s0.4-0.5,0.5-0.8c0.1-0.3,0.2-0.7,0.2-1.1
					c0-0.3,0-0.6-0.1-0.9c-0.1-0.3-0.2-0.6-0.3-0.8c-0.1-0.2-0.3-0.4-0.6-0.6c-0.2-0.2-0.6-0.2-0.9-0.2c-0.3,0-0.6,0.1-0.9,0.2
					c-0.3,0.1-0.5,0.3-0.8,0.5V143z"/>
				<path fill="#FFFFFF" d="M67,142.5c0,0.3,0.1,0.5,0.2,0.7s0.3,0.2,0.5,0.2c0.2,0,0.3,0,0.5-0.1c0.2-0.1,0.3-0.2,0.4-0.3l0.4,0.7
					c-0.2,0.2-0.4,0.3-0.6,0.4c-0.2,0.1-0.5,0.1-0.9,0.1c-0.5,0-0.9-0.1-1.2-0.4c-0.3-0.3-0.4-0.7-0.4-1.2v-4.4h-1.1v-0.9H66v-1.8
					H67v1.8h1.8v0.9H67V142.5z"/>
				<path fill="#FFFFFF" d="M70.1,144v-6.7h1l0.1,0.6c0.2-0.2,0.4-0.4,0.7-0.5c0.3-0.2,0.6-0.2,0.9-0.2c0.2,0,0.4,0,0.6,0
					c0.2,0,0.3,0.1,0.4,0.1l-0.2,1c-0.2-0.1-0.5-0.2-0.9-0.2c-0.3,0-0.5,0.1-0.8,0.2c-0.2,0.1-0.5,0.3-0.6,0.5v5.2H70.1z"/>
				<path fill="#FFFFFF" d="M78.2,144l-0.1-0.6c-0.2,0.2-0.5,0.4-0.8,0.5s-0.6,0.2-1,0.2c-0.3,0-0.6,0-0.8-0.1
					c-0.3-0.1-0.5-0.2-0.7-0.4c-0.2-0.2-0.4-0.4-0.5-0.7c-0.1-0.3-0.2-0.6-0.2-0.9c0-0.5,0.1-0.9,0.4-1.2c0.3-0.3,0.6-0.6,1-0.7
					c0.4-0.2,0.8-0.3,1.3-0.4c0.5-0.1,0.9-0.1,1.4-0.1v-0.1c0-0.6-0.1-1-0.4-1.2c-0.2-0.2-0.6-0.4-1-0.4c-0.3,0-0.6,0.1-0.8,0.2
					c-0.3,0.1-0.5,0.3-0.7,0.5l-0.8-0.5c0.3-0.4,0.6-0.6,1-0.8s0.8-0.3,1.4-0.3c0.7,0,1.3,0.2,1.7,0.6c0.4,0.4,0.6,1,0.6,1.9v4.4
					H78.2z M78.1,140.5c-0.3,0-0.6,0-1,0.1c-0.3,0-0.7,0.1-1,0.2s-0.5,0.3-0.7,0.5c-0.2,0.2-0.3,0.5-0.3,0.8c0,0.2,0,0.4,0.1,0.5
					s0.2,0.3,0.3,0.4s0.3,0.2,0.4,0.2c0.2,0,0.3,0.1,0.5,0.1c0.3,0,0.6-0.1,0.9-0.2c0.3-0.1,0.5-0.3,0.7-0.5V140.5z"/>
				<path fill="#FFFFFF" d="M86.4,142.6c-0.3,0.5-0.6,0.9-1.1,1.2c-0.5,0.3-0.9,0.4-1.4,0.4c-0.4,0-0.8-0.1-1.2-0.2
					c-0.4-0.1-0.7-0.4-1-0.6c-0.3-0.3-0.5-0.7-0.7-1.1c-0.2-0.4-0.3-0.9-0.3-1.5c0-0.6,0.1-1.2,0.3-1.6c0.2-0.4,0.4-0.8,0.7-1.1
					c0.3-0.3,0.6-0.5,1-0.6c0.4-0.1,0.7-0.2,1.1-0.2c0.4,0,0.7,0.1,1,0.2c0.3,0.1,0.5,0.3,0.7,0.4c0.2,0.2,0.4,0.3,0.5,0.5
					s0.2,0.4,0.3,0.5l-0.8,0.5c-0.2-0.4-0.4-0.8-0.7-1c-0.3-0.2-0.6-0.3-0.9-0.3c-0.3,0-0.5,0.1-0.7,0.2c-0.2,0.1-0.4,0.3-0.6,0.5
					c-0.2,0.2-0.3,0.5-0.4,0.8c-0.1,0.3-0.2,0.7-0.2,1.1s0.1,0.8,0.2,1.1c0.1,0.3,0.3,0.6,0.5,0.8c0.2,0.2,0.4,0.4,0.7,0.5
					c0.3,0.1,0.5,0.2,0.8,0.2c0.3,0,0.6-0.1,0.9-0.3c0.3-0.2,0.6-0.5,0.7-0.9L86.4,142.6z"/>
				<path fill="#FFFFFF" d="M87.7,144v-9.3h1.1v5.2l2.7-2.5h1.4l-2.3,2.2l2.9,4.5h-1.2l-2.4-3.8l-1,0.9v2.9H87.7z"/>
				<path fill="#FFFFFF" d="M98.6,143.9c-0.4-0.2-0.7-0.5-1-0.8c-0.3-0.3-0.5-0.7-0.6-1.1s-0.2-0.9-0.2-1.3s0.1-0.9,0.2-1.3
					c0.1-0.4,0.3-0.8,0.6-1.1c0.3-0.3,0.6-0.6,1-0.8c0.4-0.2,0.8-0.3,1.4-0.3c0.5,0,1,0.1,1.4,0.3c0.4,0.2,0.7,0.5,1,0.8
					c0.3,0.3,0.5,0.7,0.6,1.1c0.1,0.4,0.2,0.8,0.2,1.3s-0.1,0.9-0.2,1.3c-0.1,0.4-0.3,0.8-0.6,1.1c-0.3,0.3-0.6,0.6-1,0.8
					c-0.4,0.2-0.8,0.3-1.4,0.3C99.4,144.2,99,144.1,98.6,143.9z M98.4,142.5c0.2,0.2,0.4,0.4,0.7,0.6c0.3,0.2,0.6,0.2,0.9,0.2
					c0.3,0,0.6-0.1,0.9-0.2c0.3-0.2,0.5-0.4,0.6-0.6s0.3-0.5,0.4-0.8s0.1-0.6,0.1-1c0-0.3,0-0.6-0.1-1s-0.2-0.6-0.4-0.8
					s-0.4-0.4-0.6-0.6s-0.6-0.2-0.9-0.2c-0.3,0-0.6,0.1-0.9,0.2s-0.5,0.3-0.6,0.6s-0.3,0.5-0.4,0.8s-0.1,0.6-0.1,1
					c0,0.3,0,0.7,0.1,1S98.2,142.2,98.4,142.5z"/>
				<path fill="#FFFFFF" d="M105,144v-5.8h-1v-0.9h1v-0.5c0-0.4,0-0.8,0.1-1.1s0.2-0.5,0.4-0.7c0.2-0.2,0.4-0.3,0.6-0.4
					c0.2-0.1,0.5-0.1,0.8-0.1c0.4,0,0.7,0,0.9,0.1s0.5,0.2,0.7,0.3l-0.3,0.8c-0.2-0.1-0.3-0.1-0.5-0.2s-0.4-0.1-0.7-0.1
					c-0.2,0-0.3,0-0.4,0.1c-0.1,0-0.2,0.1-0.3,0.2s-0.1,0.3-0.2,0.4c0,0.2-0.1,0.4-0.1,0.7v0.5h1.6v0.9h-1.6v5.8H105z"/>
				<path fill="#FFFFFF" d="M111,145.8c0.1,0,0.2,0.1,0.4,0.1c0.2,0,0.3,0,0.5,0c0.2,0,0.4-0.1,0.5-0.2s0.2-0.3,0.4-0.6l0.5-1.3
					l-2.6-6.5h1.2l2,5.1l2-5.1h1.2l-3.4,8.4c-0.2,0.4-0.4,0.7-0.7,0.8c-0.3,0.1-0.6,0.2-0.9,0.2c-0.2,0-0.4,0-0.7-0.1
					c-0.2-0.1-0.4-0.1-0.6-0.2L111,145.8z"/>
				<path fill="#FFFFFF" d="M119.3,143.9c-0.4-0.2-0.7-0.5-1-0.8c-0.3-0.3-0.5-0.7-0.6-1.1s-0.2-0.9-0.2-1.3s0.1-0.9,0.2-1.3
					c0.1-0.4,0.3-0.8,0.6-1.1c0.3-0.3,0.6-0.6,1-0.8c0.4-0.2,0.8-0.3,1.4-0.3c0.5,0,1,0.1,1.4,0.3c0.4,0.2,0.7,0.5,1,0.8
					c0.3,0.3,0.5,0.7,0.6,1.1c0.1,0.4,0.2,0.8,0.2,1.3s-0.1,0.9-0.2,1.3c-0.1,0.4-0.3,0.8-0.6,1.1c-0.3,0.3-0.6,0.6-1,0.8
					c-0.4,0.2-0.8,0.3-1.4,0.3C120.1,144.2,119.7,144.1,119.3,143.9z M119.1,142.5c0.2,0.2,0.4,0.4,0.7,0.6c0.3,0.2,0.6,0.2,0.9,0.2
					c0.3,0,0.6-0.1,0.9-0.2c0.3-0.2,0.5-0.4,0.6-0.6s0.3-0.5,0.4-0.8s0.1-0.6,0.1-1c0-0.3,0-0.6-0.1-1s-0.2-0.6-0.4-0.8
					s-0.4-0.4-0.6-0.6s-0.6-0.2-0.9-0.2c-0.3,0-0.6,0.1-0.9,0.2s-0.5,0.3-0.6,0.6s-0.3,0.5-0.4,0.8s-0.1,0.6-0.1,1
					c0,0.3,0,0.7,0.1,1S118.9,142.2,119.1,142.5z"/>
				<path fill="#FFFFFF" d="M126.4,141.6c0,0.6,0.1,1,0.4,1.3c0.3,0.3,0.7,0.4,1.2,0.4c0.3,0,0.7-0.1,1-0.2s0.6-0.3,0.8-0.5v-5.2
					h1.1v6.7h-1l-0.1-0.5c-0.3,0.2-0.6,0.4-0.9,0.5c-0.3,0.1-0.7,0.2-1.2,0.2c-0.9,0-1.5-0.2-1.9-0.6c-0.4-0.4-0.6-1.1-0.6-2v-4.2
					h1.1V141.6z"/>
				<path fill="#FFFFFF" d="M132.9,144v-6.7h1l0.1,0.6c0.2-0.2,0.4-0.4,0.7-0.5c0.3-0.2,0.6-0.2,0.9-0.2c0.2,0,0.4,0,0.6,0
					c0.2,0,0.3,0.1,0.4,0.1l-0.2,1c-0.2-0.1-0.5-0.2-0.9-0.2c-0.3,0-0.5,0.1-0.8,0.2c-0.2,0.1-0.5,0.3-0.6,0.5v5.2H132.9z"/>
			</g>
			<g enable-background="new    ">
				<path fill="#FFFFFF" d="M1.4,160v-6.7h1l0.1,0.5c0.2-0.2,0.5-0.3,0.9-0.5c0.4-0.2,0.7-0.2,1.2-0.2c0.4,0,0.7,0.1,1,0.2
					c0.3,0.1,0.6,0.3,0.8,0.7c0.3-0.2,0.6-0.4,1-0.6s0.8-0.3,1.3-0.3c0.5,0,0.9,0.1,1.2,0.2c0.3,0.1,0.6,0.3,0.7,0.5
					c0.2,0.2,0.3,0.5,0.4,0.9c0.1,0.3,0.1,0.7,0.1,1.2v4H10v-4.2c0-0.6-0.1-1-0.3-1.3C9.4,154.2,9,154,8.5,154c-0.2,0-0.4,0-0.6,0.1
					c-0.2,0.1-0.4,0.1-0.5,0.2c-0.2,0.1-0.3,0.2-0.4,0.2s-0.2,0.2-0.3,0.2c0,0.2,0.1,0.3,0.1,0.5c0,0.2,0,0.4,0,0.7v4H5.7v-4.2
					c0-0.2,0-0.5-0.1-0.7c0-0.2-0.1-0.4-0.2-0.6c-0.1-0.2-0.2-0.3-0.4-0.4c-0.2-0.1-0.4-0.1-0.7-0.1c-0.3,0-0.7,0.1-1,0.2
					c-0.3,0.2-0.6,0.3-0.8,0.5v5.2H1.4z"/>
				<path fill="#FFFFFF" d="M13.7,156.6c0,0.8,0.2,1.5,0.6,2c0.4,0.5,0.9,0.7,1.7,0.7c0.4,0,0.8-0.1,1.1-0.3
					c0.3-0.2,0.5-0.5,0.7-0.8l0.7,0.5c-0.2,0.4-0.6,0.8-0.9,1s-0.9,0.4-1.6,0.4c-0.5,0-1-0.1-1.4-0.2s-0.7-0.4-1-0.7
					c-0.3-0.3-0.5-0.7-0.7-1.1s-0.2-0.9-0.2-1.5c0-0.5,0.1-1,0.2-1.4s0.3-0.8,0.6-1.1c0.3-0.3,0.6-0.5,0.9-0.7
					c0.4-0.2,0.8-0.2,1.2-0.2c0.5,0,0.9,0.1,1.3,0.3s0.7,0.4,0.9,0.7c0.2,0.3,0.4,0.7,0.5,1.1c0.1,0.4,0.2,0.9,0.2,1.4H13.7z
					 M17.3,155.7c0-0.3-0.1-0.5-0.2-0.8c-0.1-0.2-0.2-0.4-0.4-0.5c-0.2-0.1-0.3-0.3-0.5-0.3c-0.2-0.1-0.4-0.1-0.6-0.1
					c-0.4,0-0.8,0.1-1.2,0.4c-0.3,0.3-0.5,0.7-0.7,1.3H17.3z"/>
				<path fill="#FFFFFF" d="M24.5,160l-0.1-0.5c-0.2,0.3-0.5,0.4-0.8,0.5s-0.6,0.2-0.9,0.2c-0.5,0-0.9-0.1-1.3-0.3
					c-0.4-0.2-0.7-0.4-0.9-0.7s-0.4-0.7-0.6-1.1c-0.1-0.4-0.2-0.9-0.2-1.4c0-0.4,0.1-0.9,0.2-1.3c0.1-0.4,0.3-0.8,0.6-1.1
					c0.3-0.3,0.6-0.6,1-0.8c0.4-0.2,0.9-0.3,1.4-0.3c0.3,0,0.6,0,0.9,0.1c0.2,0.1,0.4,0.1,0.6,0.2v-2.7h1.1v9.3H24.5z M24.4,154.3
					c-0.1,0-0.1-0.1-0.2-0.1c-0.1,0-0.2-0.1-0.3-0.1c-0.1,0-0.2-0.1-0.4-0.1c-0.1,0-0.3,0-0.4,0c-0.4,0-0.7,0.1-1,0.2
					c-0.3,0.1-0.5,0.3-0.7,0.6c-0.2,0.2-0.3,0.5-0.4,0.8c-0.1,0.3-0.1,0.6-0.1,1c0,0.4,0,0.7,0.1,1c0.1,0.3,0.2,0.6,0.4,0.8
					c0.2,0.2,0.4,0.4,0.6,0.6c0.3,0.1,0.6,0.2,0.9,0.2c0.3,0,0.6-0.1,0.8-0.2c0.3-0.1,0.5-0.3,0.7-0.6V154.3z"/>
				<path fill="#FFFFFF" d="M28,152.3c-0.2,0-0.4-0.1-0.5-0.2c-0.1-0.2-0.2-0.3-0.2-0.6c0-0.2,0.1-0.4,0.2-0.6
					c0.1-0.2,0.3-0.2,0.5-0.2c0.2,0,0.4,0.1,0.5,0.2c0.1,0.2,0.2,0.3,0.2,0.6c0,0.2-0.1,0.4-0.2,0.6C28.3,152.2,28.2,152.3,28,152.3
					z M27.4,160v-6.7h1.1v6.7H27.4z"/>
				<path fill="#FFFFFF" d="M35.7,158.6c-0.3,0.5-0.6,0.9-1.1,1.2c-0.5,0.3-0.9,0.4-1.4,0.4c-0.4,0-0.8-0.1-1.2-0.2
					c-0.4-0.1-0.7-0.4-1-0.6c-0.3-0.3-0.5-0.7-0.7-1.1c-0.2-0.4-0.3-0.9-0.3-1.5c0-0.6,0.1-1.2,0.3-1.6c0.2-0.4,0.4-0.8,0.7-1.1
					c0.3-0.3,0.6-0.5,1-0.6c0.4-0.1,0.7-0.2,1.1-0.2c0.4,0,0.7,0.1,1,0.2c0.3,0.1,0.5,0.3,0.7,0.4s0.4,0.3,0.5,0.5s0.2,0.4,0.3,0.5
					l-0.8,0.5c-0.2-0.4-0.4-0.8-0.7-1c-0.3-0.2-0.6-0.3-0.9-0.3c-0.3,0-0.5,0.1-0.7,0.2c-0.2,0.1-0.4,0.3-0.6,0.5
					c-0.2,0.2-0.3,0.5-0.4,0.8c-0.1,0.3-0.2,0.7-0.2,1.1s0.1,0.8,0.2,1.1c0.1,0.3,0.3,0.6,0.5,0.8c0.2,0.2,0.4,0.4,0.7,0.5
					c0.3,0.1,0.5,0.2,0.8,0.2c0.3,0,0.6-0.1,0.9-0.3c0.3-0.2,0.6-0.5,0.7-0.9L35.7,158.6z"/>
				<path fill="#FFFFFF" d="M40.8,160l-0.1-0.6c-0.2,0.2-0.5,0.4-0.8,0.5s-0.6,0.2-1,0.2c-0.3,0-0.6,0-0.8-0.1
					c-0.3-0.1-0.5-0.2-0.7-0.4c-0.2-0.2-0.4-0.4-0.5-0.7c-0.1-0.3-0.2-0.6-0.2-0.9c0-0.5,0.1-0.9,0.4-1.2c0.3-0.3,0.6-0.6,1-0.7
					c0.4-0.2,0.8-0.3,1.3-0.4c0.5-0.1,0.9-0.1,1.4-0.1v-0.1c0-0.6-0.1-1-0.4-1.2c-0.2-0.2-0.6-0.4-1-0.4c-0.3,0-0.6,0.1-0.8,0.2
					c-0.3,0.1-0.5,0.3-0.7,0.5l-0.8-0.5c0.3-0.4,0.6-0.6,1-0.8s0.8-0.3,1.4-0.3c0.7,0,1.3,0.2,1.7,0.6c0.4,0.4,0.6,1,0.6,1.9v4.4
					H40.8z M40.7,156.5c-0.3,0-0.6,0-1,0.1c-0.3,0-0.7,0.1-1,0.2s-0.5,0.3-0.7,0.5c-0.2,0.2-0.3,0.5-0.3,0.8c0,0.2,0,0.4,0.1,0.5
					s0.2,0.3,0.3,0.4s0.3,0.2,0.4,0.2c0.2,0,0.3,0.1,0.5,0.1c0.3,0,0.6-0.1,0.9-0.2c0.3-0.1,0.5-0.3,0.7-0.5V156.5z"/>
				<path fill="#FFFFFF" d="M43.6,160v-9.3h1.1v9.3H43.6z"/>
				<path fill="#FFFFFF" d="M49.5,160v-6.7h1l0.1,0.6c0.2-0.2,0.4-0.4,0.7-0.5c0.3-0.2,0.6-0.2,0.9-0.2c0.2,0,0.4,0,0.6,0
					c0.2,0,0.3,0.1,0.4,0.1l-0.2,1c-0.2-0.1-0.5-0.2-0.9-0.2c-0.3,0-0.5,0.1-0.8,0.2c-0.2,0.1-0.5,0.3-0.6,0.5v5.2H49.5z"/>
				<path fill="#FFFFFF" d="M54.6,156.6c0,0.8,0.2,1.5,0.6,2c0.4,0.5,0.9,0.7,1.7,0.7c0.4,0,0.8-0.1,1.1-0.3
					c0.3-0.2,0.5-0.5,0.7-0.8l0.7,0.5c-0.2,0.4-0.6,0.8-0.9,1s-0.9,0.4-1.6,0.4c-0.5,0-1-0.1-1.4-0.2s-0.7-0.4-1-0.7
					c-0.3-0.3-0.5-0.7-0.7-1.1s-0.2-0.9-0.2-1.5c0-0.5,0.1-1,0.2-1.4s0.3-0.8,0.6-1.1c0.3-0.3,0.6-0.5,0.9-0.7
					c0.4-0.2,0.8-0.2,1.2-0.2c0.5,0,0.9,0.1,1.3,0.3s0.7,0.4,0.9,0.7c0.2,0.3,0.4,0.7,0.5,1.1c0.1,0.4,0.2,0.9,0.2,1.4H54.6z
					 M58.2,155.7c0-0.3-0.1-0.5-0.2-0.8c-0.1-0.2-0.2-0.4-0.4-0.5c-0.2-0.1-0.3-0.3-0.5-0.3c-0.2-0.1-0.4-0.1-0.6-0.1
					c-0.4,0-0.8,0.1-1.2,0.4c-0.3,0.3-0.5,0.7-0.7,1.3H58.2z"/>
				<path fill="#FFFFFF" d="M60.9,160v-9.3H62v3.2c0.3-0.2,0.6-0.4,0.9-0.5c0.3-0.1,0.7-0.2,1.2-0.2c0.9,0,1.5,0.2,1.9,0.7
					c0.4,0.5,0.6,1.1,0.6,2v4.2h-1.1v-4.2c0-0.6-0.1-1.1-0.4-1.4s-0.7-0.4-1.2-0.4c-0.4,0-0.7,0.1-1,0.2c-0.3,0.2-0.6,0.3-0.9,0.5
					v5.2H60.9z"/>
				<path fill="#FFFFFF" d="M72.2,160l-0.1-0.6c-0.2,0.2-0.5,0.4-0.8,0.5s-0.6,0.2-1,0.2c-0.3,0-0.6,0-0.8-0.1
					c-0.3-0.1-0.5-0.2-0.7-0.4c-0.2-0.2-0.4-0.4-0.5-0.7c-0.1-0.3-0.2-0.6-0.2-0.9c0-0.5,0.1-0.9,0.4-1.2c0.3-0.3,0.6-0.6,1-0.7
					c0.4-0.2,0.8-0.3,1.3-0.4c0.5-0.1,0.9-0.1,1.4-0.1v-0.1c0-0.6-0.1-1-0.4-1.2c-0.2-0.2-0.6-0.4-1-0.4c-0.3,0-0.6,0.1-0.8,0.2
					c-0.3,0.1-0.5,0.3-0.7,0.5l-0.8-0.5c0.3-0.4,0.6-0.6,1-0.8s0.8-0.3,1.4-0.3c0.7,0,1.3,0.2,1.7,0.6c0.4,0.4,0.6,1,0.6,1.9v4.4
					H72.2z M72.1,156.5c-0.3,0-0.6,0-1,0.1c-0.3,0-0.7,0.1-1,0.2s-0.5,0.3-0.7,0.5c-0.2,0.2-0.3,0.5-0.3,0.8c0,0.2,0,0.4,0.1,0.5
					s0.2,0.3,0.3,0.4s0.3,0.2,0.4,0.2c0.2,0,0.3,0.1,0.5,0.1c0.3,0,0.6-0.1,0.9-0.2c0.3-0.1,0.5-0.3,0.7-0.5V156.5z"/>
				<path fill="#FFFFFF" d="M76.1,153.5c0.3-0.1,0.6-0.2,0.8-0.3s0.5-0.1,0.8-0.1c0.4,0,0.8,0.1,1.2,0.2c0.4,0.2,0.7,0.4,1,0.7
					s0.5,0.7,0.6,1.1c0.2,0.4,0.2,0.9,0.2,1.5c0,0.5-0.1,1-0.3,1.4c-0.2,0.4-0.4,0.8-0.7,1.1c-0.3,0.3-0.7,0.5-1.1,0.7
					c-0.4,0.2-0.8,0.2-1.3,0.2c-0.5,0-1-0.1-1.4-0.2c-0.4-0.1-0.7-0.2-1-0.3v-9h1.1V153.5z M76.1,159c0.2,0.1,0.4,0.1,0.6,0.2
					c0.2,0,0.4,0.1,0.6,0.1c0.4,0,0.7-0.1,1-0.2c0.3-0.1,0.6-0.3,0.8-0.5c0.2-0.2,0.4-0.5,0.5-0.8c0.1-0.3,0.2-0.7,0.2-1.1
					c0-0.4-0.1-0.8-0.2-1.1c-0.1-0.3-0.3-0.6-0.5-0.8c-0.2-0.2-0.4-0.4-0.7-0.5c-0.3-0.1-0.5-0.2-0.9-0.2c-0.2,0-0.5,0-0.7,0.1
					c-0.2,0.1-0.5,0.2-0.7,0.3V159z"/>
				<path fill="#FFFFFF" d="M82.9,152.3c-0.2,0-0.4-0.1-0.5-0.2c-0.1-0.2-0.2-0.3-0.2-0.6c0-0.2,0.1-0.4,0.2-0.6
					c0.1-0.2,0.3-0.2,0.5-0.2c0.2,0,0.4,0.1,0.5,0.2c0.1,0.2,0.2,0.3,0.2,0.6c0,0.2-0.1,0.4-0.2,0.6
					C83.3,152.2,83.1,152.3,82.9,152.3z M82.4,160v-6.7h1.1v6.7H82.4z"/>
				<path fill="#FFFFFF" d="M85.4,160v-9.3h1.1v9.3H85.4z"/>
				<path fill="#FFFFFF" d="M89,152.3c-0.2,0-0.4-0.1-0.5-0.2c-0.1-0.2-0.2-0.3-0.2-0.6c0-0.2,0.1-0.4,0.2-0.6
					c0.1-0.2,0.3-0.2,0.5-0.2s0.4,0.1,0.5,0.2c0.1,0.2,0.2,0.3,0.2,0.6c0,0.2-0.1,0.4-0.2,0.6C89.3,152.2,89.2,152.3,89,152.3z
					 M88.4,160v-6.7h1.1v6.7H88.4z"/>
				<path fill="#FFFFFF" d="M93,158.5c0,0.3,0.1,0.5,0.2,0.7s0.3,0.2,0.5,0.2c0.2,0,0.3,0,0.5-0.1c0.2-0.1,0.3-0.2,0.4-0.3l0.4,0.7
					c-0.2,0.2-0.4,0.3-0.6,0.4c-0.2,0.1-0.5,0.1-0.9,0.1c-0.5,0-0.9-0.1-1.2-0.4c-0.3-0.3-0.4-0.7-0.4-1.2v-4.4h-1.1v-0.9h1.1v-1.8
					H93v1.8h1.8v0.9H93V158.5z"/>
				<path fill="#FFFFFF" d="M99.8,160l-0.1-0.6c-0.2,0.2-0.5,0.4-0.8,0.5c-0.3,0.1-0.6,0.2-1,0.2c-0.3,0-0.6,0-0.8-0.1
					c-0.3-0.1-0.5-0.2-0.7-0.4c-0.2-0.2-0.4-0.4-0.5-0.7c-0.1-0.3-0.2-0.6-0.2-0.9c0-0.5,0.1-0.9,0.4-1.2c0.3-0.3,0.6-0.6,1-0.7
					c0.4-0.2,0.8-0.3,1.3-0.4c0.5-0.1,0.9-0.1,1.4-0.1v-0.1c0-0.6-0.1-1-0.4-1.2c-0.2-0.2-0.6-0.4-1-0.4c-0.3,0-0.6,0.1-0.8,0.2
					c-0.3,0.1-0.5,0.3-0.7,0.5l-0.8-0.5c0.3-0.4,0.6-0.6,1-0.8c0.4-0.2,0.8-0.3,1.4-0.3c0.7,0,1.3,0.2,1.7,0.6
					c0.4,0.4,0.6,1,0.6,1.9v4.4H99.8z M99.7,156.5c-0.3,0-0.6,0-1,0.1s-0.7,0.1-1,0.2s-0.5,0.3-0.7,0.5c-0.2,0.2-0.3,0.5-0.3,0.8
					c0,0.2,0,0.4,0.1,0.5s0.2,0.3,0.3,0.4s0.3,0.2,0.4,0.2c0.2,0,0.3,0.1,0.5,0.1c0.3,0,0.6-0.1,0.9-0.2c0.3-0.1,0.5-0.3,0.7-0.5
					V156.5z"/>
				<path fill="#FFFFFF" d="M104.1,158.5c0,0.3,0.1,0.5,0.2,0.7s0.3,0.2,0.5,0.2c0.2,0,0.3,0,0.5-0.1c0.2-0.1,0.3-0.2,0.4-0.3
					l0.4,0.7c-0.2,0.2-0.4,0.3-0.6,0.4c-0.2,0.1-0.5,0.1-0.9,0.1c-0.5,0-0.9-0.1-1.2-0.4c-0.3-0.3-0.4-0.7-0.4-1.2v-4.4h-1.1v-0.9
					h1.1v-1.8h1.1v1.8h1.8v0.9h-1.8V158.5z"/>
				<path fill="#FFFFFF" d="M107.8,152.3c-0.2,0-0.4-0.1-0.5-0.2c-0.1-0.2-0.2-0.3-0.2-0.6c0-0.2,0.1-0.4,0.2-0.6
					c0.1-0.2,0.3-0.2,0.5-0.2s0.4,0.1,0.5,0.2c0.1,0.2,0.2,0.3,0.2,0.6c0,0.2-0.1,0.4-0.2,0.6C108.1,152.2,108,152.3,107.8,152.3z
					 M107.2,160v-6.7h1.1v6.7H107.2z"/>
				<path fill="#FFFFFF" d="M111.7,159.9c-0.4-0.2-0.7-0.5-1-0.8c-0.3-0.3-0.5-0.7-0.6-1.1s-0.2-0.9-0.2-1.3s0.1-0.9,0.2-1.3
					c0.1-0.4,0.3-0.8,0.6-1.1c0.3-0.3,0.6-0.6,1-0.8c0.4-0.2,0.8-0.3,1.4-0.3c0.5,0,1,0.1,1.4,0.3c0.4,0.2,0.7,0.5,1,0.8
					s0.5,0.7,0.6,1.1s0.2,0.8,0.2,1.3s-0.1,0.9-0.2,1.3s-0.3,0.8-0.6,1.1c-0.3,0.3-0.6,0.6-1,0.8c-0.4,0.2-0.8,0.3-1.4,0.3
					C112.5,160.2,112.1,160.1,111.7,159.9z M111.5,158.5c0.2,0.2,0.4,0.4,0.7,0.6c0.3,0.2,0.6,0.2,0.9,0.2c0.3,0,0.6-0.1,0.9-0.2
					c0.3-0.2,0.5-0.4,0.6-0.6s0.3-0.5,0.4-0.8s0.1-0.6,0.1-1c0-0.3,0-0.6-0.1-1s-0.2-0.6-0.4-0.8s-0.4-0.4-0.6-0.6s-0.6-0.2-0.9-0.2
					c-0.3,0-0.6,0.1-0.9,0.2c-0.3,0.1-0.5,0.3-0.6,0.6s-0.3,0.5-0.4,0.8s-0.1,0.6-0.1,1c0,0.3,0,0.7,0.1,1S111.3,158.2,111.5,158.5z
					"/>
				<path fill="#FFFFFF" d="M117.7,160v-6.7h1l0.1,0.5c0.3-0.2,0.6-0.4,1-0.5c0.4-0.1,0.8-0.2,1.2-0.2c0.9,0,1.6,0.2,1.9,0.7
					c0.4,0.5,0.6,1.1,0.6,2v4.2h-1.1v-4.2c0-0.6-0.1-1-0.4-1.3s-0.7-0.5-1.2-0.5c-0.4,0-0.7,0.1-1,0.2s-0.6,0.3-0.9,0.5v5.2H117.7z"
					/>
				<path fill="#FFFFFF" d="M129.6,158.5c0,0.3,0.1,0.5,0.2,0.7s0.3,0.2,0.5,0.2c0.2,0,0.3,0,0.5-0.1c0.2-0.1,0.3-0.2,0.4-0.3
					l0.4,0.7c-0.2,0.2-0.4,0.3-0.6,0.4c-0.2,0.1-0.5,0.1-0.9,0.1c-0.5,0-0.9-0.1-1.2-0.4c-0.3-0.3-0.4-0.7-0.4-1.2v-4.4h-1.1v-0.9
					h1.1v-1.8h1.1v1.8h1.8v0.9h-1.8V158.5z"/>
				<path fill="#FFFFFF" d="M132.7,160v-6.7h1l0.1,0.6c0.2-0.2,0.4-0.4,0.7-0.5c0.3-0.2,0.6-0.2,0.9-0.2c0.2,0,0.4,0,0.6,0
					c0.2,0,0.3,0.1,0.4,0.1l-0.2,1c-0.2-0.1-0.5-0.2-0.9-0.2c-0.3,0-0.5,0.1-0.8,0.2s-0.5,0.3-0.6,0.5v5.2H132.7z"/>
				<path fill="#FFFFFF" d="M140.8,160l-0.1-0.6c-0.2,0.2-0.5,0.4-0.8,0.5c-0.3,0.1-0.6,0.2-1,0.2c-0.3,0-0.6,0-0.8-0.1
					c-0.3-0.1-0.5-0.2-0.7-0.4c-0.2-0.2-0.4-0.4-0.5-0.7c-0.1-0.3-0.2-0.6-0.2-0.9c0-0.5,0.1-0.9,0.4-1.2c0.3-0.3,0.6-0.6,1-0.7
					c0.4-0.2,0.8-0.3,1.3-0.4c0.5-0.1,0.9-0.1,1.4-0.1v-0.1c0-0.6-0.1-1-0.4-1.2c-0.2-0.2-0.6-0.4-1-0.4c-0.3,0-0.6,0.1-0.8,0.2
					c-0.3,0.1-0.5,0.3-0.7,0.5l-0.8-0.5c0.3-0.4,0.6-0.6,1-0.8c0.4-0.2,0.8-0.3,1.4-0.3c0.7,0,1.3,0.2,1.7,0.6
					c0.4,0.4,0.6,1,0.6,1.9v4.4H140.8z M140.7,156.5c-0.3,0-0.6,0-1,0.1s-0.7,0.1-1,0.2s-0.5,0.3-0.7,0.5c-0.2,0.2-0.3,0.5-0.3,0.8
					c0,0.2,0,0.4,0.1,0.5s0.2,0.3,0.3,0.4s0.3,0.2,0.4,0.2c0.2,0,0.3,0.1,0.5,0.1c0.3,0,0.6-0.1,0.9-0.2c0.3-0.1,0.5-0.3,0.7-0.5
					V156.5z"/>
				<path fill="#FFFFFF" d="M144.2,152.3c-0.2,0-0.4-0.1-0.5-0.2c-0.1-0.2-0.2-0.3-0.2-0.6c0-0.2,0.1-0.4,0.2-0.6
					c0.1-0.2,0.3-0.2,0.5-0.2c0.2,0,0.4,0.1,0.5,0.2c0.1,0.2,0.2,0.3,0.2,0.6c0,0.2-0.1,0.4-0.2,0.6
					C144.6,152.2,144.4,152.3,144.2,152.3z M143.7,160v-6.7h1.1v6.7H143.7z"/>
				<path fill="#FFFFFF" d="M146.7,160v-6.7h1l0.1,0.5c0.3-0.2,0.6-0.4,1-0.5c0.4-0.1,0.8-0.2,1.2-0.2c0.9,0,1.6,0.2,1.9,0.7
					c0.4,0.5,0.6,1.1,0.6,2v4.2h-1.1v-4.2c0-0.6-0.1-1-0.4-1.3s-0.7-0.5-1.2-0.5c-0.4,0-0.7,0.1-1,0.2s-0.6,0.3-0.9,0.5v5.2H146.7z"
					/>
				<path fill="#FFFFFF" d="M154.8,152.3c-0.2,0-0.4-0.1-0.5-0.2c-0.1-0.2-0.2-0.3-0.2-0.6c0-0.2,0.1-0.4,0.2-0.6
					c0.1-0.2,0.3-0.2,0.5-0.2c0.2,0,0.4,0.1,0.5,0.2c0.1,0.2,0.2,0.3,0.2,0.6c0,0.2-0.1,0.4-0.2,0.6
					C155.2,152.2,155,152.3,154.8,152.3z M154.3,160v-6.7h1.1v6.7H154.3z"/>
				<path fill="#FFFFFF" d="M157.3,160v-6.7h1l0.1,0.5c0.3-0.2,0.6-0.4,1-0.5c0.4-0.1,0.8-0.2,1.2-0.2c0.9,0,1.6,0.2,1.9,0.7
					c0.4,0.5,0.6,1.1,0.6,2v4.2h-1.1v-4.2c0-0.6-0.1-1-0.4-1.3s-0.7-0.5-1.2-0.5c-0.4,0-0.7,0.1-1,0.2s-0.6,0.3-0.9,0.5v5.2H157.3z"
					/>
				<path fill="#FFFFFF" d="M169.9,154c0.2,0.2,0.3,0.4,0.4,0.6c0.1,0.2,0.2,0.5,0.2,0.8c0,0.4-0.1,0.7-0.2,1s-0.4,0.5-0.7,0.7
					c-0.3,0.2-0.6,0.3-0.9,0.4s-0.7,0.1-1.1,0.1c-0.1,0-0.3,0-0.5,0s-0.3,0-0.4-0.1c-0.1,0-0.3,0.1-0.4,0.1
					c-0.1,0.1-0.2,0.2-0.2,0.3c0,0.1,0.1,0.3,0.3,0.3c0.2,0.1,0.6,0.1,1.2,0.1c0.6,0,1.1,0,1.5,0.1c0.4,0.1,0.8,0.2,1.1,0.3
					c0.3,0.1,0.5,0.4,0.7,0.6c0.2,0.3,0.2,0.6,0.2,1c0,0.4-0.1,0.7-0.3,1s-0.4,0.5-0.7,0.7c-0.3,0.2-0.6,0.3-1,0.4
					c-0.4,0.1-0.8,0.1-1.2,0.1c-1.1,0-1.9-0.2-2.5-0.5s-0.9-0.8-0.9-1.5c0-0.7,0.3-1.2,1-1.6c-0.2-0.1-0.3-0.2-0.4-0.3
					c-0.1-0.1-0.2-0.3-0.2-0.5c0-0.3,0.1-0.5,0.3-0.6c0.2-0.2,0.5-0.3,0.7-0.4c-0.1-0.1-0.2-0.1-0.4-0.2c-0.1-0.1-0.3-0.2-0.4-0.4
					c-0.1-0.2-0.2-0.3-0.3-0.6s-0.1-0.5-0.1-0.7c0-0.4,0.1-0.7,0.2-1c0.2-0.3,0.4-0.5,0.7-0.7c0.3-0.2,0.6-0.3,0.9-0.4
					c0.3-0.1,0.7-0.1,1-0.1c0.3,0,0.6,0,0.8,0.1c0.3,0.1,0.5,0.1,0.8,0.2l1-1l0.7,0.6L169.9,154z M167.5,159.6c-0.6,0-1.1,0-1.3-0.1
					c-0.2,0.1-0.4,0.3-0.6,0.5c-0.1,0.2-0.2,0.4-0.2,0.8c0,0.2,0.1,0.4,0.2,0.6c0.1,0.2,0.3,0.3,0.5,0.4s0.5,0.2,0.8,0.2
					c0.3,0.1,0.6,0.1,1,0.1c0.6,0,1.2-0.1,1.6-0.4s0.6-0.5,0.6-0.9c0-0.2,0-0.4-0.1-0.5c-0.1-0.1-0.2-0.3-0.4-0.4
					c-0.2-0.1-0.4-0.2-0.8-0.2C168.4,159.6,168,159.6,167.5,159.6z M165.8,156c0.1,0.2,0.2,0.3,0.4,0.5c0.2,0.1,0.3,0.3,0.6,0.3
					s0.5,0.1,0.7,0.1c0.2,0,0.4,0,0.7-0.1c0.2-0.1,0.4-0.1,0.6-0.3c0.2-0.1,0.3-0.3,0.4-0.5c0.1-0.2,0.2-0.4,0.2-0.7
					c0-0.2-0.1-0.4-0.2-0.6c-0.1-0.2-0.2-0.3-0.4-0.4c-0.2-0.1-0.4-0.2-0.6-0.3c-0.2-0.1-0.4-0.1-0.7-0.1c-0.2,0-0.4,0-0.7,0.1
					c-0.2,0.1-0.4,0.1-0.6,0.3c-0.2,0.1-0.3,0.3-0.4,0.4c-0.1,0.2-0.2,0.4-0.2,0.6C165.7,155.7,165.8,155.8,165.8,156z"/>
				<path fill="#FFFFFF" d="M172.6,160.2c-0.2,0-0.4-0.1-0.5-0.2s-0.2-0.4-0.2-0.6s0.1-0.4,0.2-0.6c0.1-0.2,0.3-0.2,0.5-0.2
					s0.4,0.1,0.5,0.2c0.1,0.2,0.2,0.4,0.2,0.6s-0.1,0.4-0.2,0.6S172.8,160.2,172.6,160.2z"/>
			</g>
		</g>
	</g>
</g>
</svg>
