<?xml version="1.0" encoding="UTF-8" standalone="no"?>
<svg width="122px" height="41px" viewBox="0 0 122 41" version="1.1" xmlns="http://www.w3.org/2000/svg" xmlns:xlink="http://www.w3.org/1999/xlink" xmlns:sketch="http://www.bohemiancoding.com/sketch/ns">
    <!-- Generator: Sketch 3.3.3 (12081) - http://www.bohemiancoding.com/sketch -->
    <title>Imported Layers</title>
    <desc>Created with Sketch.</desc>
    <defs></defs>
    <g id="GUI-v1.1" stroke="none" stroke-width="1" fill="none" fill-rule="evenodd" sketch:type="MSPage">
        <g id="Parcour-Posten-Begin-Lucid-Copy-4" sketch:type="MSArtboardGroup" transform="translate(-90.800000, -153.600000)" fill="#232323">
            <path d="M200.960726,154 L198.623743,155.458 L196.409772,157.03725 L194.933876,159.224 L193.457726,161.22 C193.457726,161.22 188.045938,158.3735 183.741008,158.3735 C179.436079,158.3735 170.457183,160.56025 170.457183,160.56025 L164.184054,161.22 L157.173357,159.3455 L152.772245,159.71 L145.734465,164.0835 L140.568448,165.78425 L133.065448,168.457 L126.546548,169.30725 L118.981788,168.94275 L115.722718,170.03625 L107.604909,173.31625 L100.716971,174.65275 L94.321083,174.65275 L91,175.503 L91,182.42775 L92.3528838,183.39975 L92.3528838,186.5585 L94.6898672,191.78225 L97.6419129,193.3615 L99.4868465,193.3615 L99.9788963,191.66075 L102.438892,190.689 L100.224921,187.22 L103.668763,181.3345 L110.187917,179.51225 L119.781622,179.14775 L125.439689,177.81125 L130.48244,178.29725 L135.771469,178.29725 L142.659407,179.02625 L142.659407,180.6055 L154.836373,179.02625 L159.387328,179.02625 L163.200207,175.503 L165.045141,175.503 L177.591145,176.1105 L180.911975,176.3535 L182.510884,176.5965 L183.864021,185.3435 L184.97088,191.53925 L186.570041,192.75425 L190.013884,192.75425 L191.120743,193.969 L206.741805,193.969 L212.276606,192.75425 L212.276606,190.0815 L212.768656,189.1095 L211.415772,186.437 L207.356614,186.437 L205.757705,187.22 L203.29771,188.988 L195.79471,187.77325 L194.564838,179.39075 L196.163747,175.503 L196.163747,171.00825 L199.48483,171.00825 L202.80566,172.1015 L204.035784,171.00825 L204.527834,169.55025 L205.388668,169.55025 L206.126743,168.7 L207.602639,168.7 L207.602639,165.90575 L208.832763,165.90575 L209.201548,161.89675 L210.677697,161.22 L209.939622,159.3455 L208.094689,157.40175 L207.725651,156.18675 L205.880718,156.18675 L204.650846,154.6075 L202.928672,154.6075 L200.960726,154" id="Imported-Layers" sketch:type="MSShapeGroup"></path>
        </g>
    </g>
</svg>