<?xml version="1.0" encoding="UTF-8" standalone="no"?>
<svg width="33px" height="26px" viewBox="0 0 33 26" version="1.1" xmlns="http://www.w3.org/2000/svg" xmlns:xlink="http://www.w3.org/1999/xlink" xmlns:sketch="http://www.bohemiancoding.com/sketch/ns">
    <!-- Generator: Sketch 3.3.3 (12081) - http://www.bohemiancoding.com/sketch -->
    <title>Archive Icon</title>
    <desc>Created with Sketch.</desc>
    <defs></defs>
    <g id="GUI-v1.1" stroke="none" stroke-width="1" fill="none" fill-rule="evenodd" sketch:type="MSPage">
        <g id="Start-Copy-5" sketch:type="MSArtboardGroup" transform="translate(-46.500000, -469.000000)" fill="#000000">
            <g id="Archive-Icon" sketch:type="MSLayerGroup" transform="translate(46.750000, 469.000000)">
                <path d="M1.625,1.67741935 L8.125,1.67741935 L8.125,24.3225806 L1.625,24.3225806 L1.625,1.67741935 Z M4.54747351e-13,26 L9.75,26 L9.75,0 L4.54747351e-13,0 L4.54747351e-13,26 Z" id="Fill-1" sketch:type="MSShapeGroup"></path>
                <path d="M13,1.67741935 L19.5,1.67741935 L19.5,24.3225806 L13,24.3225806 L13,1.67741935 Z M11.375,26 L21.125,26 L21.125,0 L11.375,0 L11.375,26 Z" id="Fill-2" sketch:type="MSShapeGroup"></path>
                <path d="M24.375,1.67741935 L30.875,1.67741935 L30.875,24.3225806 L24.375,24.3225806 L24.375,1.67741935 Z M22.75,26 L32.5,26 L32.5,0 L22.75,0 L22.75,26 Z" id="Fill-3" sketch:type="MSShapeGroup"></path>
                <path d="M3.25,5.87096774 L6.5,5.87096774 L6.5,7.5483871 L3.25,7.5483871 L3.25,5.87096774 Z" id="Fill-4" sketch:type="MSShapeGroup"></path>
                <path d="M14.625,5.87096774 L17.875,5.87096774 L17.875,7.5483871 L14.625,7.5483871 L14.625,5.87096774 Z" id="Fill-5" sketch:type="MSShapeGroup"></path>
                <path d="M26,5.87096774 L29.25,5.87096774 L29.25,7.5483871 L26,7.5483871 L26,5.87096774 Z" id="Fill-6" sketch:type="MSShapeGroup"></path>
            </g>
        </g>
    </g>
</svg>