<?xml version="1.0" encoding="UTF-8" standalone="no"?>
<svg width="53px" height="113px" viewBox="0 0 53 113" version="1.1" xmlns="http://www.w3.org/2000/svg" xmlns:xlink="http://www.w3.org/1999/xlink" xmlns:sketch="http://www.bohemiancoding.com/sketch/ns">
    <!-- Generator: Sketch 3.3.3 (12081) - http://www.bohemiancoding.com/sketch -->
    <title>Hanteln</title>
    <desc>Created with Sketch.</desc>
    <defs></defs>
    <g id="GUI-v1.1" stroke="none" stroke-width="1" fill="none" fill-rule="evenodd" sketch:type="MSPage">
        <g id="Parcour-Posten-Begin-Lucid-Copy" sketch:type="MSArtboardGroup" transform="translate(-125.900000, -126.600000)" fill="#232323">
            <path d="M139.292281,236.544394 C139.702584,237.249157 139.376843,238.156725 138.606854,238.429709 C137.495045,238.823425 135.902067,239.251041 134.427,239.145773 C132.479697,239.007199 130.326348,237.940241 129.346742,237.399625 C129.007899,237.212878 128.769101,236.889341 128.692876,236.510494 L128.150371,233.800278 C128.091416,233.507667 128.134888,233.204352 128.273045,232.939694 L130.099461,229.443831 C130.234045,229.186309 130.278708,228.891915 130.226899,228.605846 L128.080697,216.818757 C128.073551,216.740846 128.067,216.663531 128.059854,216.58562 L128.059854,205.961241 C128.065213,205.891062 128.071169,205.821478 128.076528,205.751894 L128.937629,200.451004 C129.066258,199.656436 128.452292,198.935615 127.646573,198.935615 L127.41909,198.935615 C126.655056,198.935615 126.053596,198.283783 126.116124,197.523115 L128.039011,174.126167 C128.052708,173.960236 128.097966,173.797873 128.173,173.649188 L129.700472,170.597594 C129.849348,170.299631 129.879124,169.956467 129.783247,169.638283 L127.711483,162.74112 C127.698382,162.681646 127.684685,162.622173 127.671584,162.562699 L126.014888,151.716483 C126.010124,151.651062 126.004764,151.585641 126,151.519625 L126,144.198415 C126,143.805294 126.177461,143.432394 126.482955,143.184983 L128.635708,141.437646 C128.868551,141.24852 129.159753,141.145631 129.460483,141.145631 L130.603854,141.145631 C131.007011,141.145631 131.388135,140.959478 131.635865,140.641294 L132.062247,140.094136 C132.36,139.71172 132.422528,139.199057 132.222438,138.757167 C131.448281,137.046109 129.667719,132.682525 130.759281,130.920915 C131.990787,128.934494 135.941371,127.457167 136.741135,127.174073 C136.839393,127.152067 136.933483,127.130657 137.031742,127.108652 C137.880337,127.019441 142.078056,126.652488 142.267427,128.073909 C142.431191,129.297283 142.78373,133.991541 142.935584,136.054683 C142.977865,136.636931 143.403056,137.118073 143.976528,137.235831 L150.139416,138.500836 C150.501483,138.575178 150.876056,138.493699 151.174404,138.276025 C152.290382,137.460046 155.134517,135.476599 156.310045,135.560457 C157.78809,135.66632 164.862101,136.720788 164.967506,137.985794 C164.968697,137.998878 164.969888,138.011367 164.971079,138.023857 C165.051472,139.017067 166.182337,139.563036 166.991034,138.979599 C167.446596,138.650709 167.89918,138.407462 168.240404,138.407462 C169.296236,138.407462 178.58791,141.465599 178.58791,142.414799 C178.58791,143.363404 179.326933,146.316273 177.10927,146.421541 C175.329303,146.505994 171.846787,144.618894 170.54382,143.872499 C170.214506,143.683373 169.826831,143.647688 169.468337,143.772583 C168.195146,144.216257 164.99609,145.330199 162.11682,146.316273 C158.981483,147.389773 156.301708,147.77992 155.56209,147.873888 C155.424528,147.891136 155.293517,147.930388 155.168461,147.990457 C154.196596,148.457325 149.797,150.534146 148.391607,150.534146 L146.988,150.534146 C146.299596,150.534146 145.729101,151.062867 145.683247,151.748599 C145.578438,153.328815 145.342618,155.990857 144.907303,156.860362 C144.273685,158.125962 144.907303,165.085573 145.118112,167.299778 C145.303315,169.242188 145.326539,171.995225 145.328921,172.642894 C145.33964,172.736267 145.349169,172.823694 145.359292,172.916473 C145.692775,174.415804 148.708416,188.059662 148.708416,191.446688 L148.708416,198.169594 C148.708416,198.64122 148.453539,199.076567 148.041449,199.30792 L147.672236,199.514888 C147.267292,199.742673 147.013607,200.166125 147.005865,200.63002 C146.977876,202.30242 146.912966,206.397778 146.912966,208.950388 C146.912966,211.79442 145.235427,223.097394 144.798921,225.989004 C144.734011,226.416025 144.884674,226.843046 145.202079,227.136846 C146.605685,228.434562 150.505652,231.97622 151.453101,232.148694 C152.137933,232.272994 152.712,232.909957 153.068708,233.411915 C153.326562,233.775894 153.377775,234.245736 153.208652,234.658483 L152.869809,235.485762 C152.654831,236.010915 152.125427,236.337425 151.558506,236.293415 C148.813225,236.079904 141.005551,235.447699 140.05036,235.100967 C139.17318,234.782188 139.07909,231.816236 139.08564,230.384109 C139.087427,229.913078 139.345876,229.481299 139.757966,229.25292 L140.342753,228.928194 C140.750674,228.701599 141.006742,228.277552 141.015079,227.811278 C141.054382,225.542357 141.138944,218.855731 140.789382,217.807804 C140.367169,216.542799 139.839551,211.903257 140.155764,207.157852 C140.349899,204.255536 140.385629,202.418394 140.383843,201.429346 C140.383247,200.882188 140.037854,200.395099 139.523337,200.208352 L139.442348,200.179209 C138.699753,199.909199 137.889865,200.351683 137.718955,201.121867 C137.408697,202.521283 136.988865,204.466667 136.988865,204.732515 C136.988865,205.10482 134.771798,210.150567 134.247753,211.337662 C134.174506,211.503594 134.137584,211.680825 134.137584,211.86222 L134.137584,218.545873 L134.036348,227.148741 C134.033966,227.384257 134.094708,227.616799 134.213809,227.820199 L139.292281,236.544394" id="Hanteln" sketch:type="MSShapeGroup"></path>
        </g>
    </g>
</svg>