<?xml version="1.0" encoding="UTF-8" standalone="no"?>
<svg width="164px" height="164px" viewBox="0 0 164 164" version="1.1" xmlns="http://www.w3.org/2000/svg" xmlns:xlink="http://www.w3.org/1999/xlink" xmlns:sketch="http://www.bohemiancoding.com/sketch/ns">
    <!-- Generator: Sketch 3.3.3 (12081) - http://www.bohemiancoding.com/sketch -->
    <title>Startscreen</title>
    <desc>Created with Sketch.</desc>
    <defs></defs>
    <g id="GUI-v1.1" stroke="none" stroke-width="1" fill="none" fill-rule="evenodd" sketch:type="MSPage">
        <g id="Start-Copy-5" sketch:type="MSArtboardGroup" transform="translate(-69.500000, -126.000000)">
            <g id="Startscreen" sketch:type="MSLayerGroup" transform="translate(69.000000, 127.000000)">
                <g id="Imported-Layers" transform="translate(55.000000, 0.000000)" sketch:type="MSShapeGroup">
                    <path d="M50.5729014,27.0225957 C50.5729014,40.1430638 40.011338,50.7795319 26.9832676,50.7795319 C13.9551972,50.7795319 3.3936338,40.1430638 3.3936338,27.0225957 C3.3936338,13.9017447 13.9551972,3.26565957 26.9832676,3.26565957 C40.011338,3.26565957 50.5729014,13.9017447 50.5729014,27.0225957 L50.5729014,27.0225957 Z" id="Fill-1"></path>
                    <path d="M50.5729014,27.0225957 C50.5729014,40.1430638 40.011338,50.7795319 26.9832676,50.7795319 C13.9551972,50.7795319 3.3936338,40.1430638 3.3936338,27.0225957 C3.3936338,13.9017447 13.9551972,3.26565957 26.9832676,3.26565957 C40.011338,3.26565957 50.5729014,13.9017447 50.5729014,27.0225957 L50.5729014,27.0225957 Z" id="Stroke-2" stroke="#FFFFFF" stroke-width="1.1971831"></path>
                    <path d="M30.1540563,3.31123404 C30.1540563,5.07485106 28.7344648,6.50451064 26.9832676,6.50451064 C25.2320704,6.50451064 23.8124789,5.07485106 23.8124789,3.31123404 C23.8124789,1.54761702 25.2320704,0.117957447 26.9832676,0.117957447 C28.7344648,0.117957447 30.1540563,1.54761702 30.1540563,3.31123404 L30.1540563,3.31123404 Z" id="Fill-3" fill="#6DD2D9"></path>
                    <path d="M30.1540563,3.31123404 C30.1540563,5.07485106 28.7344648,6.50451064 26.9832676,6.50451064 C25.2320704,6.50451064 23.8124789,5.07485106 23.8124789,3.31123404 C23.8124789,1.54761702 25.2320704,0.117957447 26.9832676,0.117957447 C28.7344648,0.117957447 30.1540563,1.54761702 30.1540563,3.31123404 L30.1540563,3.31123404 Z" id="Stroke-4" stroke="#FFFFFF" stroke-width="1.1971831"></path>
                    <path d="M17.9569014,4.89140426 C18.8326901,6.4187234 18.3128451,8.37153191 16.796662,9.25314894 C15.2800986,10.1351489 13.340662,9.61161702 12.4652535,8.08429787 C11.5898451,6.5573617 12.1093099,4.60417021 13.6258732,3.72255319 C15.1424366,2.84055319 17.081493,3.36408511 17.9569014,4.89140426 L17.9569014,4.89140426 Z" id="Fill-5" fill="#F5BD53"></path>
                    <path d="M17.9569014,4.89140426 C18.8326901,6.4187234 18.3128451,8.37153191 16.796662,9.25314894 C15.2800986,10.1351489 13.340662,9.61161702 12.4652535,8.08429787 C11.5898451,6.5573617 12.1093099,4.60417021 13.6258732,3.72255319 C15.1424366,2.84055319 17.081493,3.36408511 17.9569014,4.89140426 L17.9569014,4.89140426 Z" id="Stroke-6" stroke="#FFFFFF" stroke-width="1.1971831"></path>
                    <path d="M8.17871831,12.401617 C9.69528169,13.283234 10.2147465,15.2360426 9.33933803,16.7633617 C8.4635493,18.2906809 6.52449296,18.8138298 5.00792958,17.9322128 C3.4913662,17.0505957 2.97190141,15.0974043 3.84730986,13.5700851 C4.72309859,12.042766 6.66215493,11.519617 8.17871831,12.401617 L8.17871831,12.401617 Z" id="Fill-7" fill="#E67029"></path>
                    <path d="M8.17871831,12.401617 C9.69528169,13.283234 10.2147465,15.2360426 9.33933803,16.7633617 C8.4635493,18.2906809 6.52449296,18.8138298 5.00792958,17.9322128 C3.4913662,17.0505957 2.97190141,15.0974043 3.84730986,13.5700851 C4.72309859,12.042766 6.66215493,11.519617 8.17871831,12.401617 L8.17871831,12.401617 Z" id="Stroke-8" stroke="#FFFFFF" stroke-width="1.1971831"></path>
                    <path d="M3.43888732,23.8293191 C5.19008451,23.8293191 6.60967606,25.2589787 6.60967606,27.0225957 C6.60967606,28.7862128 5.19008451,30.2154894 3.43888732,30.2154894 C1.68769014,30.2154894 0.268098592,28.7862128 0.268098592,27.0225957 C0.268098592,25.2589787 1.68769014,23.8293191 3.43888732,23.8293191 L3.43888732,23.8293191 Z" id="Fill-9" fill="#6DD2D9"></path>
                    <path d="M3.43888732,23.8293191 C5.19008451,23.8293191 6.60967606,25.2589787 6.60967606,27.0225957 C6.60967606,28.7862128 5.19008451,30.2154894 3.43888732,30.2154894 C1.68769014,30.2154894 0.268098592,28.7862128 0.268098592,27.0225957 C0.268098592,25.2589787 1.68769014,23.8293191 3.43888732,23.8293191 L3.43888732,23.8293191 Z" id="Stroke-10" stroke="#FFFFFF" stroke-width="1.1971831"></path>
                    <path d="M5.00792958,36.1125957 C6.52449296,35.2309787 8.4635493,35.7541277 9.33933803,37.2814468 C10.2147465,38.808766 9.69528169,40.7615745 8.17871831,41.6435745 C6.66215493,42.5251915 4.72309859,42.0020426 3.84730986,40.4747234 C2.97190141,38.9474043 3.4913662,36.9945957 5.00792958,36.1125957 L5.00792958,36.1125957 Z" id="Fill-11" fill="#F5BD53"></path>
                    <path d="M5.00792958,36.1125957 C6.52449296,35.2309787 8.4635493,35.7541277 9.33933803,37.2814468 C10.2147465,38.808766 9.69528169,40.7615745 8.17871831,41.6435745 C6.66215493,42.5251915 4.72309859,42.0020426 3.84730986,40.4747234 C2.97190141,38.9474043 3.4913662,36.9945957 5.00792958,36.1125957 L5.00792958,36.1125957 Z" id="Stroke-12" stroke="#FFFFFF" stroke-width="1.1971831"></path>
                    <path d="M12.4652535,45.9605106 C13.340662,44.4331915 15.2800986,43.9100426 16.796662,44.7916596 C18.3128451,45.6736596 18.8326901,47.6264681 17.9569014,49.1537872 C17.081493,50.6811064 15.1424366,51.2042553 13.6258732,50.3226383 C12.1093099,49.4406383 11.5898451,47.4878298 12.4652535,45.9605106 L12.4652535,45.9605106 Z" id="Fill-13" fill="#6DD2D9"></path>
                    <path d="M12.4652535,45.9605106 C13.340662,44.4331915 15.2800986,43.9100426 16.796662,44.7916596 C18.3128451,45.6736596 18.8326901,47.6264681 17.9569014,49.1537872 C17.081493,50.6811064 15.1424366,51.2042553 13.6258732,50.3226383 C12.1093099,49.4406383 11.5898451,47.4878298 12.4652535,45.9605106 L12.4652535,45.9605106 Z" id="Stroke-14" stroke="#FFFFFF" stroke-width="1.1971831"></path>
                    <path d="M23.8124789,50.7339574 C23.8124789,48.9703404 25.2320704,47.5406809 26.9832676,47.5406809 C28.7344648,47.5406809 30.1540563,48.9703404 30.1540563,50.7339574 C30.1540563,52.4971915 28.7344648,53.9268511 26.9832676,53.9268511 C25.2320704,53.9268511 23.8124789,52.4971915 23.8124789,50.7339574 L23.8124789,50.7339574 Z" id="Fill-15" fill="#F5BD53"></path>
                    <path d="M23.8124789,50.7339574 C23.8124789,48.9703404 25.2320704,47.5406809 26.9832676,47.5406809 C28.7344648,47.5406809 30.1540563,48.9703404 30.1540563,50.7339574 C30.1540563,52.4971915 28.7344648,53.9268511 26.9832676,53.9268511 C25.2320704,53.9268511 23.8124789,52.4971915 23.8124789,50.7339574 L23.8124789,50.7339574 Z" id="Stroke-16" stroke="#FFFFFF" stroke-width="1.1971831"></path>
                    <path d="M36.0096338,49.1537872 C35.1338451,47.6264681 35.6536901,45.6736596 37.1702535,44.7916596 C38.6868169,43.9100426 40.6258732,44.4331915 41.5012817,45.9605106 C42.3770704,47.4878298 41.8572254,49.4406383 40.340662,50.3226383 C38.8244789,51.2042553 36.8850423,50.6811064 36.0096338,49.1537872 L36.0096338,49.1537872 Z" id="Fill-17" fill="#E67029"></path>
                    <path d="M36.0096338,49.1537872 C35.1338451,47.6264681 35.6536901,45.6736596 37.1702535,44.7916596 C38.6868169,43.9100426 40.6258732,44.4331915 41.5012817,45.9605106 C42.3770704,47.4878298 41.8572254,49.4406383 40.340662,50.3226383 C38.8244789,51.2042553 36.8850423,50.6811064 36.0096338,49.1537872 L36.0096338,49.1537872 Z" id="Stroke-18" stroke="#FFFFFF" stroke-width="1.1971831"></path>
                    <path d="M45.7878169,41.6435745 C44.2712535,40.7615745 43.7517887,38.808766 44.6275775,37.2814468 C45.5029859,35.7541277 47.4420423,35.2309787 48.9586056,36.1125957 C50.475169,36.9945957 50.9946338,38.9474043 50.1192254,40.4747234 C49.2438169,42.0020426 47.3043803,42.5251915 45.7878169,41.6435745 L45.7878169,41.6435745 Z" id="Fill-19" fill="#E67029"></path>
                    <path d="M45.7878169,41.6435745 C44.2712535,40.7615745 43.7517887,38.808766 44.6275775,37.2814468 C45.5029859,35.7541277 47.4420423,35.2309787 48.9586056,36.1125957 C50.475169,36.9945957 50.9946338,38.9474043 50.1192254,40.4747234 C49.2438169,42.0020426 47.3043803,42.5251915 45.7878169,41.6435745 L45.7878169,41.6435745 Z" id="Stroke-20" stroke="#FFFFFF" stroke-width="1.1971831"></path>
                    <path d="M50.5276479,30.2154894 C48.7764507,30.2154894 47.3568592,28.7862128 47.3568592,27.0225957 C47.3568592,25.2589787 48.7764507,23.8293191 50.5276479,23.8293191 C52.2788451,23.8293191 53.6984366,25.2589787 53.6984366,27.0225957 C53.6984366,28.7862128 52.2788451,30.2154894 50.5276479,30.2154894 L50.5276479,30.2154894 Z" id="Fill-21" fill="#6DD2D9"></path>
                    <path d="M50.5276479,30.2154894 C48.7764507,30.2154894 47.3568592,28.7862128 47.3568592,27.0225957 C47.3568592,25.2589787 48.7764507,23.8293191 50.5276479,23.8293191 C52.2788451,23.8293191 53.6984366,25.2589787 53.6984366,27.0225957 C53.6984366,28.7862128 52.2788451,30.2154894 50.5276479,30.2154894 L50.5276479,30.2154894 Z" id="Stroke-22" stroke="#FFFFFF" stroke-width="1.1971831"></path>
                    <path d="M48.9586056,17.9322128 C47.4420423,18.8138298 45.5029859,18.2906809 44.6275775,16.7633617 C43.7517887,15.2360426 44.2712535,13.283234 45.7878169,12.401617 C47.3043803,11.519617 49.2438169,12.042766 50.1192254,13.5700851 C50.9946338,15.0974043 50.475169,17.0505957 48.9586056,17.9322128 L48.9586056,17.9322128 Z" id="Fill-23" fill="#F5BD53"></path>
                    <path d="M48.9586056,17.9322128 C47.4420423,18.8138298 45.5029859,18.2906809 44.6275775,16.7633617 C43.7517887,15.2360426 44.2712535,13.283234 45.7878169,12.401617 C47.3043803,11.519617 49.2438169,12.042766 50.1192254,13.5700851 C50.9946338,15.0974043 50.475169,17.0505957 48.9586056,17.9322128 L48.9586056,17.9322128 Z" id="Stroke-24" stroke="#FFFFFF" stroke-width="1.1971831"></path>
                    <path d="M41.5012817,8.08429787 C40.6258732,9.61161702 38.6868169,10.1351489 37.1702535,9.25314894 C35.6536901,8.37153191 35.1338451,6.4187234 36.0096338,4.89140426 C36.8850423,3.36408511 38.8244789,2.84055319 40.340662,3.72255319 C41.8572254,4.60417021 42.3770704,6.5573617 41.5012817,8.08429787 L41.5012817,8.08429787 Z" id="Fill-25" fill="#6DD2D9"></path>
                    <path d="M41.5012817,8.08429787 C40.6258732,9.61161702 38.6868169,10.1351489 37.1702535,9.25314894 C35.6536901,8.37153191 35.1338451,6.4187234 36.0096338,4.89140426 C36.8850423,3.36408511 38.8244789,2.84055319 40.340662,3.72255319 C41.8572254,4.60417021 42.3770704,6.5573617 41.5012817,8.08429787 L41.5012817,8.08429787 Z" id="Stroke-26" stroke="#FFFFFF" stroke-width="1.1971831"></path>
                </g>
                <text id="Phys.io" sketch:type="MSTextLayer" font-family="Interface Corp" font-size="32.7272727" font-weight="260" sketch:alignment="middle" fill="#FFFFFF">
                    <tspan x="37.6472727" y="107">Phys.io</tspan>
                </text>
                <text id="Keep-track-of-your--" sketch:type="MSTextLayer" font-family="Interface Corp" font-size="14" font-weight="260" sketch:alignment="middle" fill="#FFFFFF">
                    <tspan x="32.666" y="144">Keep track of your </tspan>
                    <tspan x="0.403" y="160">medical rehabilitation training. </tspan>
                </text>
            </g>
        </g>
    </g>
</svg>