<?xml version="1.0" encoding="UTF-8" standalone="no"?>
<svg width="84px" height="66px" viewBox="0 0 84 66" version="1.1" xmlns="http://www.w3.org/2000/svg" xmlns:xlink="http://www.w3.org/1999/xlink" xmlns:sketch="http://www.bohemiancoding.com/sketch/ns">
    <!-- Generator: Sketch 3.3.3 (12081) - http://www.bohemiancoding.com/sketch -->
    <title>Imported Layers</title>
    <desc>Created with Sketch.</desc>
    <defs></defs>
    <g id="GUI-v1.1" stroke="none" stroke-width="1" fill="none" fill-rule="evenodd" sketch:type="MSPage">
        <g id="Parcour-Posten-Begin-Lucid-Copy-2" sketch:type="MSArtboardGroup" transform="translate(-107.200000, -135.600000)" fill="#232323">
            <path d="M108.103191,195.327396 C108.103191,195.327396 110.29159,197.737047 111.239774,197.737047 L114.741043,197.737047 C114.741043,197.737047 114.522231,189.559228 114.741043,189.194172 C114.959855,188.829116 120.503366,184.594184 120.503366,184.594184 L129.694302,182.184533 L133.049697,180.79732 L135.383688,180.285959 C135.383688,180.285959 132.39298,182.6226 132.028294,183.352712 C131.663608,184.082824 128.746118,183.790779 128.746118,183.790779 L127.214155,184.594184 C127.214155,184.594184 126.411845,186.565487 127.06828,187.514633 C127.724716,188.46406 128.891993,190.654397 128.6729,192.333936 C128.454088,194.013194 129.256679,194.743306 129.256679,194.743306 L130.715424,196.276823 L132.247106,196.276823 L134.508441,196.568868 L134.143755,191.019453 L135.383688,188.025993 L135.383688,186.857532 C135.383688,186.857532 142.677975,182.330555 142.969724,182.257544 C143.261473,182.184533 146.398055,180.285959 146.398055,180.285959 C146.398055,180.285959 153.108844,177.219489 153.619405,177.219489 C154.129966,177.219489 159.017042,172.692512 159.017042,172.692512 L159.965507,178.533691 L159.308791,190.435363 L160.913691,199.927666 L168.135041,200.730789 L171.63631,200.730789 L172.730368,200.365733 L167.405669,197.737047 L164.196149,197.152958 C164.196149,197.152958 164.41496,189.267184 164.41496,188.683094 C164.41496,188.099004 164.925521,181.235387 164.925521,181.235387 L164.706709,179.336814 L165.800768,175.174893 L166.384266,167.216108 L172.730368,167.216108 L178.565629,162.689131 L178.930596,163.711288 C178.930596,163.711288 178.857659,178.606702 178.930596,179.482836 C179.003534,180.359253 180.826964,192.479959 180.826964,192.845015 C180.826964,193.210071 180.243467,197.445003 180.243467,197.445003 L179.514094,198.759204 L182.869489,199.562609 L186.662506,199.635621 L190.674336,199.635621 L184.547045,197.006935 L184.474108,189.997296 L185.568166,183.279701 L185.568166,177.584545 L185.20348,165.974917 L185.786978,160.644535 L184.984668,155.241424 L185.714041,155.241424 L186.516632,153.708189 L187.975377,151.225526 L188.631812,149.765302 C188.631812,149.765302 189.434121,146.041448 189.288247,145.311054 C189.142372,144.580942 188.558874,140.199988 185.859915,138.52073 C183.161238,136.841191 183.525924,137.571303 183.525924,137.571303 C183.525924,137.571303 181.4834,135.6 181.045776,135.6 C180.608153,135.6 178.930596,136.257101 178.930596,136.257101 L176.961009,139.250842 L175.794014,144.069864 L173.75149,145.822415 L172.14687,144.580942 L172.14687,145.968437 L170.906656,145.165032 L171.271624,146.625538 L170.614907,146.625538 L170.614907,147.866728 L169.005782,148.523829 C169.005782,148.523829 165.21727,148.961897 164.560835,148.961897 C163.9044,148.961897 160.275843,150.27638 160.275843,150.27638 L157.995921,152.831772 L154.494652,155.971536 L150.993383,157.066704 L144.720499,158.162154 C144.720499,158.162154 140.635732,162.03203 139.90636,162.470097 C139.176706,162.908165 133.997881,168.530309 133.997881,168.530309 L129.402553,173.203591 L126.703594,174.955859 L120.430429,176.19705 L115.178666,180.285959 L113.209361,183.20669 L112.260895,184.18628 L109.124313,185.54333 L108.39494,188.099004 L108.103191,191.822576 L108.103191,195.327396" id="Imported-Layers" sketch:type="MSShapeGroup"></path>
        </g>
    </g>
</svg>