<?xml version="1.0" encoding="UTF-8" standalone="no"?>
<svg width="122px" height="54px" viewBox="0 0 122 54" version="1.1" xmlns="http://www.w3.org/2000/svg" xmlns:xlink="http://www.w3.org/1999/xlink" xmlns:sketch="http://www.bohemiancoding.com/sketch/ns">
    <!-- Generator: Sketch 3.3.3 (12081) - http://www.bohemiancoding.com/sketch -->
    <title>Imported Layers</title>
    <desc>Created with Sketch.</desc>
    <defs></defs>
    <g id="GUI-v1.1" stroke="none" stroke-width="1" fill="none" fill-rule="evenodd" sketch:type="MSPage">
        <g id="Parcour-Posten-Begin-Lucid-Copy-3" sketch:type="MSArtboardGroup" transform="translate(-89.500000, -153.600000)" fill="#232323">
            <path d="M208.299945,166.771608 L201.739228,167.127646 L199.87757,167.661703 L197.572439,170.331474 L195.533443,170.331474 L194.29208,168.284641 L192.6963,162.588804 L190.213831,159.918775 L180.195675,154.668115 L177.358789,153.6 L173.901093,154.400957 L163.262384,159.384718 L161.489266,160.541713 L161.489266,162.588804 L160.868713,163.122861 L157.676895,163.56778 L149.786532,162.588804 L141.452696,162.855703 L133.651131,162.855703 L128.242979,161.342928 L123.544177,159.740756 L112.018781,158.850919 L105.812996,158.405742 L102.177962,157.960823 L100.936857,157.871943 L96.2380549,156.448048 L93.0462363,157.070986 L90.7413629,158.583761 L89.5,160.096794 L90.7413629,162.143885 L99.8728312,161.431809 L100.404844,162.143885 L102.266502,162.143885 L106.078873,161.07577 L110.600338,163.033722 L119.465928,166.682727 L125.139958,167.127646 L129.572882,169.441636 L144.112502,173.268402 L152.889553,175.582392 L152.889553,177.184306 L151.64819,177.985263 L144.023962,181.723148 L137.81792,184.482057 L133.473793,186.351129 L130.813987,188.131062 L118.756835,191.42377 L113.171346,194.360699 L111.309688,194.360699 L105.724198,197.208746 L104.305755,198.899541 L105.901536,201.836469 L107.497316,201.836469 L109.713907,199.344718 L111.22089,198.988679 L119.820603,196.852708 L124.696743,196.674689 L129.218207,196.407789 L133.296456,193.737761 L139.502498,192.224727 L146.417633,191.512909 C146.417633,191.512909 155.105886,189.465818 156.435789,188.664861 C157.765692,187.863904 166.01073,184.126019 166.01073,184.126019 C166.01073,184.126019 173.457878,181.634268 174.344308,181.634268 L177.536127,181.634268 C177.536127,181.634268 180.63889,183.6811 181.437038,183.6811 C182.234928,183.6811 185.071814,183.948 185.071814,183.948 C185.071814,183.948 188.352173,185.905952 188.352173,187.062947 C188.352173,188.219943 189.682076,193.8269 189.682076,193.8269 L190.657304,197.386766 L191.100519,199.878517 L193.139515,201.836469 L190.302629,204.150459 L191.543734,204.773397 L191.189059,206.197292 L192.341624,206.197292 L193.58273,204.862536 C193.58273,204.862536 193.228312,207.354287 193.58273,207.354287 C193.937405,207.354287 195.710523,206.197292 195.710523,206.197292 L197.838316,206.197292 L197.838316,202.815445 L197.129224,199.789636 C197.129224,199.789636 196.242536,196.22977 195.887861,196.22977 C195.533443,196.22977 194.20354,186.083971 194.20354,186.083971 L193.139515,179.943215 L194.29208,177.718364 L195.444646,177.629225 L196.065198,182.212766 L196.065198,185.550172 L195.799321,186.706909 L196.863089,187.418986 L197.129224,185.461033 L197.838316,186.44001 L197.838316,185.550172 L198.902342,185.372153 L200.054907,185.194134 L199.434097,182.702124 L200.054907,181.812287 L198.813544,177.985263 C198.813544,177.985263 200.586662,178.608201 201.296013,178.608201 C202.005363,178.608201 206.172152,177.162861 207.413257,176.639656 C208.654363,176.11645 211.225629,173.090383 211.225629,173.090383 L211.225629,169.441636 L208.299945,166.771608 L208.299945,166.771608 Z M174.698983,164.724775 L166.89716,164.724775 L165.035502,161.965866 L167.51797,160.808871 L173.273076,159.651876 L176.472101,158.583761 L177.536127,158.583761 L182.057591,162.677684 L174.698983,164.724775 L174.698983,164.724775 Z" id="Imported-Layers" sketch:type="MSShapeGroup"></path>
        </g>
    </g>
</svg>